<svg width="313" height="436" viewBox="0 0 313 436" fill="none" xmlns="http://www.w3.org/2000/svg">
<path d="M312.093 0H88.8608V436H312.093V0Z" fill="url(#paint0_linear_54_752)"/>
<path fill-rule="evenodd" clip-rule="evenodd" d="M30.0846 263.032C31.076 258.968 31.4375 258.956 32.3239 254.951C32.7555 252.994 33.2103 251.038 33.6885 249.081C33.8751 249.745 34.0617 250.386 34.2483 250.991C35.0531 253.646 35.9861 256.266 36.9542 258.863C38.5753 263.184 44.0803 282.072 46.0631 286.265C55.2886 304.606 57.5279 320.001 56.6998 340.602C56.4665 346.424 55.7318 352.329 54.3789 358C53.924 359.898 53.3642 362.041 52.6527 363.916C50.4834 364.603 49.3521 366.722 47.8475 367.712C46.0747 368.876 45.025 372.824 43.4622 374.257C42.5408 375.095 40.7913 376.737 41.3978 378.146C41.6661 378.763 42.2492 379.066 42.879 379.183C46.6229 379.905 46.7512 379.788 50.0635 379.974C54.2039 380.207 58.3676 380.405 62.5197 380.533L65.3422 380.487L69.9374 370.635L69.9841 370.507C71.9668 365.837 73.4714 360.806 74.7893 355.904C76.3522 350.069 77.6584 344.142 78.8014 338.203C80.4109 329.865 81.8455 324.31 82.7435 315.809C82.8485 316.17 82.9301 316.473 82.9768 316.659C83.7932 319.605 84.528 322.575 85.2511 325.544C86.3241 330.028 87.4204 331.658 88.2602 336.176C89.5664 343.164 90.2313 350.64 89.4848 357.744C89.2749 359.735 88.8783 362.541 88.1785 364.544C86.1491 365.511 83.4666 368.876 82.1137 370.099C80.5392 371.52 79.7811 374.944 78.4399 376.586C77.6468 377.552 76.1772 379.439 76.982 380.743C77.3319 381.314 77.9616 381.523 78.6031 381.547C82.347 381.698 83.6766 381.675 87.4204 381.698C91.5258 381.721 95.6312 381.733 99.7367 381.733H100.297L105.965 370.868L106 370.74C108.531 360.783 109.125 349.242 109.289 338.983C109.417 330.843 110.198 309.73 109.487 302.906C126.235 305.526 161.586 306.842 179.384 300.123C177.238 296.152 177.191 296.594 174.299 293.252C181.122 297.025 185.519 297.794 187.303 301.497C187.047 303.593 186.382 309.474 186.312 311.547C186.032 320.269 186.359 322.796 186.545 331.518C186.732 340.043 185.6 349.417 180.842 356.73C179.559 358.71 178.089 360.399 176.387 362.029C175.547 362.833 173.961 364.16 173.471 365.197L173.448 365.243V365.29C173.238 365.837 173.401 366.443 173.704 366.955C171.406 369.564 165.832 376.155 166.123 378.449C166.333 380.044 169.062 380.44 170.322 380.627C172.689 380.988 175.197 381.092 177.588 381.139C180.609 381.197 182.125 380.289 185.122 379.905C185.426 379.87 185.717 379.8 185.997 379.695C188.61 378.775 190.079 375.41 190.977 373.011C191.432 371.799 193.916 370.449 194.324 369.226C196.599 362.32 199.398 358.582 200.926 354.774C206.874 339.88 205.848 328.619 211.003 316.729C214.828 321.783 220.706 328.77 220.088 335.326C219.633 340.078 218.304 345.167 216.904 349.72C215.563 354.052 213.953 358.489 212.006 362.588C211.434 363.799 209.242 368.178 207.959 368.69C204.588 370.041 201.159 376.714 199.759 380.033L199.281 381.174L200.506 381.372C202.045 381.616 203.608 381.779 205.171 381.884C210.07 382.21 215.085 381.966 219.96 381.43C222.223 381.186 224.567 380.871 226.806 380.429L227.553 380.289L227.599 379.532C227.774 376.493 228.346 373.511 229.162 370.588C229.815 368.248 230.62 365.965 231.495 363.694C236.067 351.886 243.344 339.74 240.219 326.604C238.843 320.816 238.831 317.276 239.134 311.36C239.484 304.408 240.417 297.409 241.665 290.562C242.237 287.429 242.855 284.238 243.624 281.152C253.118 262.112 253.515 244.062 248.966 223.52C253.398 223.893 258.145 223.299 262.297 221.959C273.517 218.338 279.99 216.183 285.227 204.422C282.707 205.353 280.398 205.726 277.307 205.901C283.092 194.139 274.672 176.869 264.875 169.998L263.813 168.927L263.335 170.685C262.927 174.004 261.761 179.838 259.883 183.576C259.603 181.655 259.136 179.571 258.46 178.231L257.282 175.902L256.64 178.441C255.952 181.201 254.273 184.555 252.803 186.954C249.106 192.986 243.916 197.772 237.466 200.753C237.186 200.881 236.906 201.021 236.627 201.149C216.193 190.121 202.582 188.304 180.935 193.894C183.501 191.856 185.682 190.564 187.665 188.13C180.212 189.923 174.451 193.696 168.712 195.024C147.124 200.031 134.598 200.718 111.306 190.901C106.641 188.933 102.081 186.022 97.439 184.007C95.293 178.068 94.0218 171.698 94.1151 165.387C94.1384 163.488 94.3017 160.973 94.7565 158.958C97.4157 159.226 99.9 160.134 101.988 161.846C103.037 162.708 104.227 164.024 104.833 165.27C105.172 165.969 105.475 167.483 105.662 168.263C105.93 169.416 106.175 170.569 106.396 171.733L106.874 174.284L108.379 172.164C109.102 171.151 111.96 169.94 114.024 169.195C114.071 170.79 114.677 172.548 115.284 173.748L116.427 175.995L117.301 173.631C117.931 171.931 119.004 170.58 120.45 169.509C120.94 169.148 121.535 168.81 122.211 168.507C122.27 172.676 124.626 170.522 127.705 166.912C130.621 166.376 133.665 166.167 135.834 166.225C135.729 178.243 134.306 182.773 139.858 187.023C147.672 192.986 155.288 192.171 165.003 192.834C162.706 190.668 162.216 190.471 160.303 186.162C164.922 186.581 167.639 186.278 169.669 185.556C161.131 179.768 158.32 179.163 158.169 166.155C161.341 165.631 165.808 164.56 167.826 162.137C168.222 161.66 168.561 161.054 168.736 160.414C171.243 160.961 174.252 161.101 176.62 160.612L179.069 160.111L177.04 158.644C173.413 156.024 170.159 152.262 170.882 147.499C171.138 145.799 172.071 143.633 173.261 142.34L173.471 142.108L173.529 141.805C174.369 137.415 171.441 130.008 169.435 126.084L169.097 125.432L168.362 125.49C166.998 125.595 165.283 125.443 163.907 125.327C162.134 125.187 160.362 125.012 158.589 124.803C149.806 123.766 143.205 118.526 138.528 111.294C136.592 108.29 134.574 104.214 133.466 100.58C136.895 100.441 140.802 100.825 144.033 101.5L147.345 102.187L145.071 99.6837C142.26 96.5977 138.855 93.8494 135.484 91.4039C130.784 88.0035 125.442 84.6846 120.135 81.8199C118.631 81.0047 121.43 76.1486 121.523 73.4119C118.118 74.5415 116.741 74.5532 112.041 75.9972C100.961 64.7362 85.5077 57.6093 70.5789 55.583C67.0217 55.3268 60.2337 54.9192 57.2013 57.0387C55.067 56.5496 52.886 55.9207 50.7866 55.3617C40.0449 52.5086 37.0825 53.941 25.1161 60.1247C18.2232 63.6881 13.3014 67.4379 7.51651 72.5968C5.53378 74.3552 3.49272 76.3116 1.81323 78.3612C1.0318 79.3278 -0.717662 81.4356 0.320355 82.7049C1.07846 83.6249 2.39638 83.1824 3.30611 82.7864C7.50483 80.9697 12.59 79.6538 17.0219 78.5242C21.4189 77.4063 25.8859 76.3582 30.3529 75.4033C28.3001 77.4994 25.2561 81.7616 24.7079 84.5798C24.1947 87.2349 26.749 87.5144 28.5684 86.839L28.6501 86.804L28.7317 86.7575C34.8431 83.2173 45.1183 81.191 52.1862 80.5854C55.7085 81.6568 70.9288 90.6819 74.3228 93.6165L72.6316 94.8509C66.0653 93.1624 59.3707 91.7649 52.6527 90.81C50.1801 90.4607 47.5443 90.123 45.0484 90.0065L43.9404 90.7984C41.9343 97.541 43.5905 104.307 47.0194 110.258C48.4657 112.761 50.5417 115.661 52.676 117.839C19.1446 158.772 16.7187 214.739 30.073 263.044" fill="#1F1616"/>
<path fill-rule="evenodd" clip-rule="evenodd" d="M239.356 205.26L239.531 205.179C246.144 202.116 251.614 197.376 255.707 191.437L256.057 195.99L262.169 188.968C264.291 186.534 265.819 182.47 266.834 178.476C268.712 180.735 270.298 183.285 271.476 185.777C277.226 197.923 274.73 204.631 268.362 212.026L275.418 211.944C269.855 215.473 255.078 219.502 248.231 218.582L246.529 218.361C245.222 214.553 242.995 209.557 239.356 205.26Z" fill="#66524E"/>
<path fill-rule="evenodd" clip-rule="evenodd" d="M266.834 178.476C268.712 180.735 270.298 183.285 271.476 185.777C277.226 197.923 274.73 204.631 268.362 212.026L275.418 211.944C269.855 215.473 255.078 219.502 248.231 218.582L246.529 218.361C246.19 217.359 245.782 216.276 245.304 215.147C252.943 215.846 263.102 213.458 263.102 213.458H258.32C270.321 209.173 271.394 199.822 271.394 199.822C270.753 201.277 268.129 202.966 268.129 202.966C272.234 189.457 266.834 178.476 266.834 178.476Z" fill="#453A38"/>
<path fill-rule="evenodd" clip-rule="evenodd" d="M239.356 205.26L239.531 205.179C246.144 202.116 251.614 197.376 255.707 191.437L256.057 195.99L262.169 188.968C264.291 186.534 265.819 182.47 266.834 178.476C266.834 178.476 269.645 191.903 258.437 204.014L258.786 199.705C258.786 199.705 254.588 204.538 247.637 207.333L250.144 203.723C250.144 203.723 249.398 205.074 241.163 207.601C240.604 206.797 239.997 206.017 239.356 205.248" fill="#8F7E7B"/>
<path fill-rule="evenodd" clip-rule="evenodd" d="M79.4896 297.957C78.6149 307.68 75.1743 326.93 73.5415 336.549C72.5151 342.558 71.3488 348.579 69.9026 354.495C69.0395 358.023 68.0598 361.68 66.8235 365.173C66.8235 365.173 65.2606 366.582 57.2481 365.523C57.9595 363.45 58.4961 361.132 58.9393 359.025C60.1872 353.027 62.1466 346.832 62.2516 340.718C62.5548 323.786 59.7673 298.585 53.5392 282.923C61.4585 290.678 74.2646 295.499 79.478 297.945L79.4896 297.957ZM207.76 313.573C206.932 315.529 207.562 313.899 206.559 315.751C203.002 322.377 200.739 342.092 196.401 352.981C195.876 354.285 192.773 360.434 189.834 365.919C189.834 365.919 187.467 367.188 179.337 365.954C179.699 365.604 180.061 365.255 180.422 364.905C182.358 362.972 184.014 360.911 185.437 358.57C190.324 350.535 191.595 340.683 191.397 331.437C191.152 320.059 190.954 313.689 192.074 302.382C199.27 303.209 207.259 313.154 207.749 313.561L207.76 313.573ZM52.6761 117.85V117.816H52.6878V117.85H52.6761ZM160.735 139.115C159.359 137.845 158.694 137.019 156.676 136.693C156.676 136.693 157.411 131.487 152.932 134.026C148.454 136.564 151.894 137.659 153.527 137.997C153.527 137.997 153.294 139.895 156.804 138.125C156.804 138.125 157.481 138.463 160.735 139.115ZM233.758 205.167C237.128 208.393 240.93 213.191 243.03 219.63L243.893 223.334C244.033 223.962 244.184 224.603 244.324 225.232C244.721 228.131 245.094 230.018 245.444 231.171C249.514 256.325 246.902 271.44 229.291 290.236C229.291 290.236 234.037 287.918 237.816 284.96C237.361 287.057 236.953 289.176 236.58 291.272C235.297 298.318 234.609 304.001 234.247 311.162C233.921 317.567 233.979 321.515 235.46 327.769C236.113 330.505 236.23 333.254 235.939 336.048C235.017 344.713 230.072 353.842 226.923 361.971C226.421 363.275 225.943 364.591 225.5 365.907C225.5 365.907 221.476 366.466 216.298 365.395C221.091 356.195 224.905 341.685 225.488 335.618C226.375 326.348 223.879 321.364 218.141 314.05C208.204 299.144 206.909 301.73 211.423 267.562C211.423 267.562 204.192 286.393 197.789 294.207C186.557 286.358 179.757 288.966 160.128 280.815C167.138 288.081 165.423 287.441 168.771 294.09C161.225 299.261 124.871 294.941 109.942 292.984C110.863 272.477 102.058 258.63 102.058 258.63C104.612 271.65 103.294 299.133 103.096 320.746C103.037 327.373 104.46 334.197 104.39 338.936C104.25 347.472 103.819 357.033 102.116 365.651C99.4569 365.872 96.0862 365.977 92.8672 365.604C93.8819 361.994 95.7014 357.173 95.5964 353.679C95.0715 337.353 85.2279 294.358 81.7989 272.826C81.5307 277.938 80.5626 285.007 81.0875 292.809C59.1725 280.419 40.5815 279.243 35.5897 222.775L30.2713 242.758C22.4687 198.25 25.3962 159.168 57.5513 120.552L57.7146 120.366L57.7729 120.424C58.4961 121.158 63.2546 124.908 63.2546 124.908C75.1276 129.1 86.1843 122.264 85.2512 122.974C84.3182 123.685 82.0205 126.782 82.0205 126.782L85.1579 125.455C88.9951 123.394 95.0132 119.76 91.4443 117.222C87.8871 114.671 78.6382 116.965 77.4019 116.313C76.1656 115.661 70.9289 111.329 70.9289 111.329C63.1846 104.179 57.1664 103.632 57.1664 103.632C58.2394 105.658 62.5781 115.719 68.1181 118.538C73.6581 121.356 86.3242 121.018 86.3242 121.018C85.4028 121.484 77.2736 124.512 68.2114 122.695C65.4589 122.148 62.6948 120.086 60.1406 117.431L60.1989 117.361L59.3008 116.523C53.8192 110.444 49.4921 101.966 48.7574 100.511C48.6174 100.219 48.4191 99.8468 48.2092 99.4159C47.5677 97.378 47.1362 95.375 47.1712 93.7098C47.7427 93.5001 48.7807 93.7563 50.5418 94.7578C57.4114 98.6823 76.1773 108.313 76.1773 108.313C72.5968 106.555 68.9579 101.757 68.9579 101.757C73.5065 103.399 86.4175 105.25 86.4175 105.25C99.3869 109.617 93.7653 121.67 93.7653 121.67L93.2405 123.51C101.556 115.941 100.821 108.103 90.9311 103.503C88.4119 102.339 81.9156 100.907 75.8624 99.2413L83.0002 94.0009C83.0002 94.0009 86.6625 92.2541 90.9778 88.5392C94.1035 85.8375 99.4918 83.4619 105.743 82.1227C107.364 81.6336 110.898 80.4807 114.071 78.9668C114.071 78.9668 113.791 80.8999 112.356 83.1475C112.648 83.229 112.613 83.6715 112.916 83.753C114.701 84.8826 129.734 94.0009 131.39 95.1771L126.539 95.5963L127.787 100.58C128.906 105.099 131.414 110.351 133.91 114.229C139.485 122.858 147.509 128.995 157.947 130.218C159.778 130.439 161.633 130.614 163.476 130.765C164.164 130.823 164.899 130.882 165.633 130.916C166.811 133.676 168.164 137.496 168.199 139.848C166.823 141.816 165.82 144.309 165.47 146.533C165.12 148.745 165.283 150.83 165.855 152.763C165.085 152.833 164.164 152.891 163.126 152.938L160.455 152.099L160.781 152.996C155.65 153.054 148.897 152.553 143.835 150.096C143.835 150.096 143.135 146.859 140.931 147.325C138.727 147.791 136.849 150.294 135.822 150.9C135.822 150.9 146.471 156.303 161.843 155.849L163.009 159.028C162.064 159.576 160.397 160.03 158.962 160.344H158.95C144.605 163.174 140.149 159.587 128.883 160.915C127.822 160.985 127.04 161.113 126.504 161.276C125.151 161.532 123.821 161.87 122.596 162.277L123.39 160.519L114.117 163.314C113.044 163.64 111.761 164.071 110.467 164.595C110.257 163.908 110.047 163.302 109.814 162.825C108.869 160.857 107.19 158.923 105.51 157.549C102.268 154.882 98.3139 153.532 94.1385 153.345L92.8789 153.287C86.6741 146.801 85.7527 140.652 85.7994 136.914C85.8344 133.968 85.8577 132.267 85.5661 131.743C84.6331 131.871 82.1255 134.166 82.3121 137.1C82.8953 146.009 86.4875 152.693 89.5899 156.897C88.9134 159.459 88.6685 162.673 88.6218 165.235C89.7532 188.176 97.9873 203.013 115.913 212.62C115.913 212.62 108.332 205.574 100.063 191.088C103.119 192.439 106.163 193.789 109.231 195.082C164.234 218.256 187.782 178.627 233.769 205.074L233.758 205.167Z" fill="#66524E"/>
<path fill-rule="evenodd" clip-rule="evenodd" d="M95.6545 365.825C94.7331 365.791 93.8118 365.721 92.9021 365.604C93.9167 361.994 95.7362 357.173 95.6312 353.679C95.118 337.679 85.6593 296.07 82.0437 274.154C82.1137 274.445 89.7763 305.899 94.8964 318.313C94.8964 318.313 91.5258 315.122 90.6977 315.285C89.8696 315.448 97.3457 334.395 97.4623 346.052C97.4623 346.052 96.5759 342.896 95.5962 343.024C94.6865 343.14 98.9202 355.088 95.6662 365.837" fill="#453A38"/>
<path fill-rule="evenodd" clip-rule="evenodd" d="M162.927 159.133C162.484 159.366 161.913 159.587 161.283 159.797C161.854 159.576 162.426 159.366 162.927 159.133ZM96.681 85.0922C99.3168 83.8811 102.431 82.8679 105.778 82.1459C107.399 81.6568 110.933 80.5039 114.106 78.9901C114.106 78.9901 113.826 80.9232 112.391 83.1707C112.683 83.2522 112.648 83.6948 112.951 83.7763C114.735 84.9059 129.769 94.0241 131.425 95.2003L126.573 95.6195L127.821 100.604C128.941 105.122 131.449 110.374 133.945 114.252C139.52 122.881 147.544 129.018 157.982 130.241C159.813 130.462 161.668 130.637 163.511 130.788C164.199 130.847 164.933 130.905 165.668 130.94C166.846 133.7 168.199 137.519 168.234 139.872C166.858 141.84 165.855 144.332 165.505 146.556C165.155 148.769 165.318 150.853 165.89 152.786C165.12 152.856 164.199 152.914 163.161 152.961L161.574 152.46C159.533 147.406 163.895 141.514 163.895 141.514L159.114 144.309C159.907 142.119 160.292 140.384 160.431 139.01L160.77 139.08L160.443 138.777C160.758 135.074 159.219 134.165 159.219 134.165C156.769 133.35 141.596 128.576 135.064 124.558C128.533 120.54 117.255 93.5001 118.246 93.2672C119.237 93.0343 121.862 92.9178 121.862 92.9178C114.98 89.0749 103.306 88.7837 103.306 88.7837C103.539 87.2699 107.271 85.9889 107.271 85.9889C105.055 86.2218 96.436 85.6977 96.436 85.6977C96.506 85.4881 96.5876 85.2785 96.6693 85.0689L96.681 85.0922Z" fill="#8F7E7B"/>
<path fill-rule="evenodd" clip-rule="evenodd" d="M196.716 303.989C196.716 303.989 193.741 310.405 194.22 333.463C194.22 333.463 192.517 329.143 191.945 329.154C191.374 329.166 196.261 349.569 181.53 366.256C180.854 366.186 180.131 366.082 179.361 365.965C179.722 365.616 180.084 365.266 180.446 364.917C182.382 362.984 184.038 360.923 185.461 358.582C190.347 350.547 191.619 340.695 191.42 331.448C191.176 320.071 190.977 313.701 192.097 302.393C193.625 302.568 195.199 303.162 196.716 303.977" fill="#453A38"/>
<path fill-rule="evenodd" clip-rule="evenodd" d="M218.385 365.756C217.732 365.662 217.044 365.546 216.333 365.406C221.126 356.206 224.94 341.696 225.523 335.629C226.41 326.359 223.914 321.375 218.175 314.062C208.239 299.156 206.944 301.741 211.458 267.574C211.458 267.574 210.443 288.617 219.89 302.242L213.942 298.516C213.942 298.516 225.966 313.084 227.599 323.332L223.75 318.907C223.75 318.907 234.434 333.591 218.397 365.767" fill="#453A38"/>
<path fill-rule="evenodd" clip-rule="evenodd" d="M77.3319 296.978C77.3319 296.978 74.1128 324.415 69.5526 339.332C69.5526 339.332 72.0018 336.77 72.4683 335.606C72.4683 335.606 66.975 356.707 63.3245 365.919C66.1353 365.814 66.8234 365.197 66.8234 365.197C68.0597 361.703 69.0394 358.035 69.9025 354.518C71.3487 348.59 72.515 342.581 73.5414 336.572C75.1742 326.953 78.6265 307.704 79.4895 297.98C78.8714 297.689 78.1366 297.363 77.3319 297.002V296.978Z" fill="#8F7E7B"/>
<path fill-rule="evenodd" clip-rule="evenodd" d="M102.081 258.63C104.635 271.65 103.317 299.133 103.119 320.746C103.061 327.373 104.483 334.197 104.413 338.936C104.274 347.472 103.842 357.033 102.139 365.651C101.498 365.709 100.798 365.756 100.086 365.79C101.766 357.429 102.571 337.225 102.571 337.225L101.288 339.088C100.471 330.109 102.221 311.698 102.221 311.698C101.194 311.675 99.8882 316.706 99.8882 316.706C101.988 291.54 102.081 258.619 102.081 258.619" fill="#8F7E7B"/>
<path fill-rule="evenodd" clip-rule="evenodd" d="M204.88 310.464C204.88 310.464 201.894 329.189 196.412 338.622L199.678 336.176C199.678 336.176 193.286 356.113 187.058 366.454C189.111 366.315 189.846 365.919 189.846 365.919C192.785 360.434 195.887 354.285 196.412 352.981C200.763 342.104 203.013 322.388 206.571 315.751C207.574 313.887 206.944 315.518 207.772 313.573C207.597 313.433 206.524 312.129 204.88 310.464Z" fill="#8F7E7B"/>
<path fill-rule="evenodd" clip-rule="evenodd" d="M237.851 284.949C237.396 287.045 236.988 289.164 236.615 291.261C235.332 298.306 234.644 303.989 234.282 311.151C233.956 317.556 234.014 321.503 235.495 327.757C236.148 330.494 236.265 333.242 235.973 336.037C235.052 344.701 230.107 353.831 226.958 361.959C226.456 363.263 225.978 364.579 225.535 365.895C225.535 365.895 224.695 366.012 223.284 366.035C231.856 348.532 233.757 331.856 233.757 331.856L232.708 335C231.658 328.828 232.591 309.311 232.591 309.311C232.066 310.475 230.608 313.561 230.608 313.561C230.842 300.39 237.851 284.937 237.851 284.937" fill="#8F7E7B"/>
<path fill-rule="evenodd" clip-rule="evenodd" d="M160.163 280.815C167.173 288.081 165.458 287.441 168.805 294.09C161.259 299.261 124.906 294.941 109.977 292.984C110.898 272.477 102.093 258.63 102.093 258.63C102.093 258.63 114.595 274.072 117.861 285.717L114.479 282.573C114.479 282.573 116.461 288.978 119.027 289.328C119.027 289.328 140.033 292.821 155.556 291.074L148.208 288.745C148.208 288.745 157.784 288.279 158.717 288.279C159.65 288.279 160.921 284.879 160.175 280.803L160.163 280.815ZM211.469 267.551C211.469 267.551 204.238 286.381 197.835 294.195C186.603 286.346 179.804 288.955 160.175 280.803C160.175 280.803 184.527 284.867 196.89 285.822L211.469 267.551Z" fill="#453A38"/>
<path fill-rule="evenodd" clip-rule="evenodd" d="M81.8221 272.826C81.5539 277.938 80.5858 285.007 81.1107 292.809C59.1957 280.419 40.6047 279.243 35.6129 222.775L30.2945 242.758C22.4919 198.25 25.4193 159.168 57.5745 120.552L57.7378 120.366C57.7378 120.366 36.0094 148.943 30.6794 185.277C30.6794 185.277 35.9278 177.707 38.0271 175.367C38.0271 175.367 30.9126 193.894 32.3122 218.606C32.3122 218.606 36.9775 211.618 38.8436 210.209C38.8436 210.209 39.555 251.341 58.5776 270.124C58.5776 270.124 57.4112 263.719 56.9447 262.206C56.4782 260.692 74.5443 285.962 77.9383 287.476L81.8221 272.826ZM83.4899 282.433C82.8485 278.928 82.277 275.691 81.8221 272.826C81.8221 272.826 82.7435 277.344 83.4899 282.433Z" fill="#453A38"/>
<path fill-rule="evenodd" clip-rule="evenodd" d="M48.5123 99.9749C48.4307 99.8002 48.3374 99.6255 48.2441 99.4275C47.6026 97.3896 47.1711 95.3866 47.2061 93.7214C47.7776 93.5117 48.8156 93.7679 50.5767 94.7694C57.4463 98.6939 76.2122 108.325 76.2122 108.325C72.6316 106.566 68.9928 101.768 68.9928 101.768C73.5414 103.41 86.4524 105.262 86.4524 105.262C99.4218 109.629 93.8002 121.682 93.8002 121.682L93.2753 123.522C92.9721 124.477 93.2054 124.139 93.6719 123.161C93.5436 123.277 93.4153 123.405 93.2753 123.522C94.2667 120.412 93.8935 113.367 91.1177 111.539L93.8585 112.878C90.8844 105.949 76.2938 106.065 76.2938 106.065C77.7517 107.637 78.8014 111.189 78.8014 111.189C73.4947 109.501 68.4679 105.192 68.4679 105.192L69.2843 107.579C64.7357 103.736 51.953 96.9122 49.9702 96.1552C47.9875 95.3983 48.489 99.9632 48.489 99.9632L48.5123 99.9749Z" fill="#8F7E7B"/>
<path fill-rule="evenodd" clip-rule="evenodd" d="M233.781 205.155C237.151 208.381 240.954 213.179 243.053 219.619L243.916 223.322C244.056 223.951 244.208 224.591 244.348 225.22C244.744 228.12 245.117 230.006 245.467 231.159C249.538 256.313 246.925 271.429 229.314 290.224C252.372 259.842 238.936 219.921 238.936 219.921C239.052 222.483 238.003 224.696 238.003 224.696C235.67 201.161 202.174 200.812 202.174 200.812C207.305 201.86 208.938 205.703 208.938 205.703C191.199 197.318 146.377 207.682 146.377 207.682C149.177 210.827 154.308 214.32 154.308 214.32C124.229 208.497 100.74 192.287 100.693 192.252C100.518 191.891 100.355 191.554 100.215 191.227C103.212 192.555 106.21 193.883 109.23 195.152C164.234 218.326 187.781 178.697 233.769 205.144" fill="#8F7E7B"/>
<path fill-rule="evenodd" clip-rule="evenodd" d="M115.937 212.701C115.937 212.701 114.992 211.816 113.394 210.035C114.911 211.63 115.937 212.701 115.937 212.701ZM82.5104 139.103C83.4435 147.057 86.7441 153.089 89.6132 156.979C88.9368 159.541 88.6919 162.755 88.6452 165.317C89.7416 187.582 97.5325 202.221 114.374 211.84C79.8979 192.345 84.4115 166.085 84.4115 166.085L81.8456 175.413C78.3933 158.283 80.3411 146.148 82.4987 139.103H82.5104Z" fill="#453A38"/>
<path fill-rule="evenodd" clip-rule="evenodd" d="M162.449 157.491L163.032 159.086C162.088 159.634 160.42 160.088 158.985 160.402H158.974C144.628 163.232 140.173 159.645 128.906 160.973C127.845 161.043 127.063 161.171 126.527 161.334C125.174 161.59 123.844 161.928 122.62 162.335L123.413 160.577L114.141 163.372C113.068 163.698 111.785 164.129 110.49 164.653C110.28 163.966 110.07 163.36 109.837 162.883C108.892 160.915 107.213 158.982 105.533 157.607C102.291 154.941 98.3371 153.59 94.1617 153.404L92.9021 153.345C86.6973 146.859 85.7759 140.71 85.8226 136.972C85.8575 134.165 85.8809 132.5 85.6243 131.883C86.2074 133.071 93.182 146.661 110.152 149.339C110.152 149.339 105.72 141.653 105.487 138.847C105.487 138.847 123.518 159.389 162.461 157.456" fill="#453A38"/>
<path fill-rule="evenodd" clip-rule="evenodd" d="M210.151 370.309C208.507 371.846 205.16 376.12 204.11 378.973C204.11 378.973 213.055 380.953 215.971 379.124C213.965 379.439 208.122 378.169 206.652 377.552L210.151 370.297V370.309Z" fill="#6E6555"/>
<path fill-rule="evenodd" clip-rule="evenodd" d="M87.6887 369.505C86.0442 371.043 82.6969 375.316 81.6472 378.169C81.6472 378.169 90.5928 380.149 93.5086 378.321C91.5025 378.635 85.6593 377.366 84.1898 376.76L87.6887 369.505Z" fill="#6E6555"/>
<path fill-rule="evenodd" clip-rule="evenodd" d="M51.7314 367.77C50.0869 369.307 46.7396 373.581 45.6899 376.434C45.6899 376.434 54.6356 378.414 57.5513 376.586C55.5453 376.9 49.702 375.631 48.2325 375.014L51.7198 367.759L51.7314 367.77Z" fill="#6E6555"/>
<path fill-rule="evenodd" clip-rule="evenodd" d="M152.734 165.433C153.224 176.962 155.743 176.845 159.067 183.192C158.39 183.029 155.3 181.934 154.32 180.63C154.495 184.566 154.822 184.811 155.638 188.421C151.089 186.581 146.203 185.44 143.123 181.911C139.485 177.731 139.695 172.385 141.479 166.481L141.677 165.817C145.701 165.817 148.36 165.759 152.722 165.445" fill="#CFC4B6"/>
<path fill-rule="evenodd" clip-rule="evenodd" d="M155.638 188.421C151.089 186.593 146.203 185.44 143.123 181.911C139.485 177.731 139.695 172.385 141.479 166.481L141.677 165.817C142.319 165.817 142.937 165.817 143.52 165.817C143.228 171.151 146.494 178.185 146.786 178.371C147.077 178.546 143.753 176.333 143.753 176.333C145.969 182.156 155.626 188.433 155.626 188.433" fill="#9C968E"/>
<path fill-rule="evenodd" clip-rule="evenodd" d="M152.734 165.433C153.212 177.486 155.801 175.995 159.837 183.681C159.16 183.518 155.3 181.923 154.332 180.63C154.647 183.705 154.973 185.405 155.65 188.421C151.381 184.753 150.914 181.049 150.401 176.391C151.544 177.09 152.886 177.416 152.886 177.416C150.903 174.971 149.468 165.643 149.468 165.643V165.619C150.145 165.584 152.104 165.48 152.757 165.433" fill="white"/>
<path fill-rule="evenodd" clip-rule="evenodd" d="M160.758 139.103C159.382 137.834 158.717 137.007 156.699 136.681C156.699 136.681 157.434 131.475 152.956 134.014C148.477 136.553 151.918 137.647 153.55 137.985C153.55 137.985 153.317 139.883 156.828 138.113C156.828 138.113 157.504 138.451 160.758 139.103ZM130.924 108.884C131.869 110.817 132.895 112.657 133.933 114.264C139.508 122.893 147.532 129.03 157.971 130.253C159.802 130.474 161.656 130.649 163.499 130.8C164.187 130.858 164.922 130.916 165.657 130.951C166.835 133.711 168.188 137.531 168.223 139.883C166.846 141.851 165.843 144.343 165.493 146.568C165.143 148.78 165.307 150.865 165.878 152.798C160.84 153.59 148.232 152.32 143.858 150.143C143.858 150.143 143.159 146.905 140.954 147.371C138.75 147.837 136.872 150.341 135.846 150.946C135.846 150.946 146.494 156.35 161.866 155.896L163.032 159.075C162.088 159.622 160.42 160.076 158.985 160.391H158.974C157.201 160.74 155.58 160.996 154.075 161.171C141.666 156.955 135.064 150.411 135.064 150.411C108.111 141.281 139.508 130.148 139.508 130.148C131.612 123.731 130.936 108.872 130.936 108.872L130.924 108.884Z" fill="#CCCCCC"/>
<path fill-rule="evenodd" clip-rule="evenodd" d="M162.927 159.133C162.484 159.366 161.913 159.587 161.283 159.785C161.854 159.564 162.426 159.354 162.927 159.133ZM130.924 108.884C131.857 110.817 132.895 112.657 133.933 114.264C139.508 122.904 147.532 129.03 157.971 130.253C159.802 130.474 161.656 130.649 163.499 130.8C164.187 130.858 164.922 130.916 165.657 130.951C166.834 133.711 168.187 137.531 168.222 139.883C166.846 141.851 165.843 144.343 165.493 146.568C165.143 148.78 165.307 150.865 165.878 152.798C164.817 152.961 163.406 153.043 161.808 153.031C159.183 147.86 163.884 141.525 163.884 141.525L159.102 144.32C159.895 142.131 160.28 140.396 160.42 139.022L160.758 139.091L160.431 138.789C160.746 135.085 159.207 134.177 159.207 134.177C156.758 133.362 141.584 128.587 135.052 124.57C131.309 117.606 130.912 108.872 130.912 108.872L130.924 108.884Z" fill="white"/>
<path fill-rule="evenodd" clip-rule="evenodd" d="M99.5267 83.4852C95.2113 85.9656 86.9539 95.4099 82.0787 92.0677C81.9621 91.9862 81.2389 91.4622 80.0376 90.6354C82.8251 89.3078 86.9305 86.7924 91.6191 82.0644C91.6191 82.0644 84.4696 86.0471 74.9175 87.1534C74.0545 86.5712 73.1214 85.9656 72.1534 85.3251C74.8475 83.916 78.5098 81.4938 82.6385 77.3364C82.6385 77.3364 76.1305 80.9581 67.2782 82.2158C66.5434 81.7617 65.7853 81.2958 65.0272 80.83C67.5931 79.3511 70.8354 77.0337 74.416 73.4353C74.416 73.4353 68.5845 76.6843 60.4203 78.105C59.4173 77.5344 58.4142 76.9638 57.3995 76.4048C59.5689 75.0889 62.2047 73.1325 65.1088 70.2095C65.1088 70.2095 60.2104 72.9345 53.2941 74.2388C52.2795 73.7264 51.2764 73.2373 50.285 72.7715C52.0112 71.2692 53.9473 69.2779 55.9883 66.6461C55.9883 66.6461 52.4544 69.243 46.996 71.3275C45.4798 70.7103 44.022 70.1862 42.669 69.7903C44.0919 68.1134 45.6548 65.959 47.206 63.234C47.206 63.234 44.1386 66.2268 39.1234 69.0217C38.1904 68.9052 37.3273 68.882 36.5692 68.9751C36.196 69.0217 35.8228 69.0683 35.4496 69.1149C36.2077 67.2283 36.9425 65.0041 37.5723 62.3955C37.5723 62.3955 35.6712 65.7494 32.0323 69.6738C30.5044 69.9533 29.0465 70.2794 27.6236 70.6404C27.8569 69.0566 28.0202 67.2865 28.0668 65.3068C28.0668 65.3068 27.2621 67.8106 25.4193 71.2227C23.9614 71.6302 22.5735 72.0844 21.2439 72.5386C21.2556 71.1877 21.2206 69.7204 21.0806 68.1367C21.0806 68.1367 20.6724 70.1746 19.5528 73.1558C17.3484 73.9826 15.3307 74.856 13.488 75.7061C11.027 76.8473 6.12853 78.9784 9.39419 76.2418C12.7065 73.4702 19.7744 67.9387 28.8133 63.0011C38.517 57.7025 39.6483 57.062 49.9818 60.0432C60.6535 63.1175 83.9681 70.9548 99.5267 83.4619" fill="#E5C471"/>
<path fill-rule="evenodd" clip-rule="evenodd" d="M20.3342 70.9199C20.1243 71.5837 19.8677 72.3406 19.5528 73.1791C17.3485 74.0059 15.3308 74.8793 13.488 75.7294C11.6569 76.5795 8.47285 77.9769 8.30957 77.5111C8.36789 77.383 8.42618 77.2433 8.50782 77.1035C8.50782 77.1035 13.2664 73.773 20.3342 70.9199ZM26.679 68.7306C26.3291 69.4875 25.9092 70.326 25.4193 71.2459C23.9614 71.6535 22.5735 72.1077 21.2439 72.5619C21.2439 71.9214 21.244 71.2576 21.2206 70.5589C22.9235 69.8951 24.7545 69.2662 26.6673 68.7306H26.679ZM34.19 67.1934C33.5485 67.9736 32.8254 68.8237 32.0206 69.6971C30.4928 69.9766 29.0349 70.3027 27.612 70.6637C27.717 69.9533 27.8103 69.208 27.8803 68.4161C29.9096 67.8921 32.0207 67.4729 34.19 67.205V67.1934ZM42.3892 67.0187C41.4211 67.6708 40.3248 68.3579 39.1118 69.0333C38.1788 68.9169 37.3157 68.8936 36.5576 68.9868C36.1844 69.0333 35.8111 69.0799 35.4379 69.1265C35.7062 68.4511 35.9744 67.7407 36.2427 66.9721C38.2604 66.8207 40.3131 66.8207 42.3775 67.0071L42.3892 67.0187ZM49.9002 70.1047C49.0138 70.5239 48.0341 70.9315 46.9961 71.3391C45.4799 70.7219 44.022 70.1979 42.6691 69.8019C43.2989 69.0566 43.952 68.2298 44.6285 67.2865C46.9844 67.6592 49.3287 68.288 51.638 69.2546C51.6263 69.2546 47.6142 68.847 45.9814 69.1381C45.9814 69.1381 47.4976 69.4759 49.9118 70.1047H49.9002ZM58.9741 72.7715C57.3296 73.3188 55.4052 73.8429 53.3058 74.2388C52.2911 73.7264 51.2881 73.2373 50.2967 72.7715C50.9732 72.1892 51.673 71.5254 52.4078 70.7801C54.3438 71.3158 56.5948 71.9913 58.9741 72.7715ZM68.0013 76.1486C65.867 76.8823 63.2895 77.6043 60.432 78.105C59.429 77.5344 58.4259 76.9638 57.4113 76.4048C58.6009 75.6828 59.9421 74.7628 61.3883 73.5867C63.581 74.3552 65.8203 75.2053 68.0013 76.137V76.1486ZM69.156 78.0701C69.5292 77.7906 69.9141 77.4878 70.299 77.1734C71.1154 77.5577 71.9318 77.9536 72.7016 78.3729C72.7016 78.3729 71.0104 78.2215 69.156 78.0817V78.0701ZM72.2234 81.2376C70.6838 81.6219 69.0277 81.9596 67.2782 82.2158C66.5435 81.7617 65.7854 81.2958 65.0273 80.83C65.8437 80.3642 66.7301 79.8052 67.6748 79.1531C68.9227 79.7121 70.4739 80.4108 72.2234 81.2493V81.2376ZM81.3206 85.954C79.3729 86.4547 77.2269 86.8856 74.9409 87.1534C74.0778 86.5712 73.1448 85.9656 72.1767 85.3251C73.273 84.7545 74.5327 84.0092 75.9206 83.0543C77.6701 83.9393 79.5128 84.9175 81.3323 85.954H81.3206ZM89.3215 91.0662C86.674 92.65 84.0964 93.4419 82.0904 92.0677C81.9737 91.9862 81.2506 91.4622 80.0493 90.6354C81.3323 90.0298 82.9068 89.1564 84.6679 87.9453C86.3008 88.9584 87.8753 90.0065 89.3098 91.0662H89.3215Z" fill="#BF7F65"/>
<path fill-rule="evenodd" clip-rule="evenodd" d="M99.5266 83.4851C98.8502 83.8811 98.0687 84.4401 97.2173 85.1038C86.5456 78.2448 66.2168 69.1498 66.2168 69.1498C68.3162 68.8586 70.882 69.1498 70.882 69.1498C61.4466 65.4815 52.9325 64.0258 47.066 63.4552L47.1826 63.2456C47.1826 63.2456 47.1126 63.3155 46.9727 63.4436C41.9575 62.9661 38.9018 63.1408 38.9018 63.1408C39.7182 62.151 43.2171 60.87 43.2171 60.87C35.6011 61.196 27.5419 64.7479 21.1039 68.4394L21.0806 68.1483C21.0806 68.1483 21.0573 68.2647 20.9989 68.4976C13.7212 72.6899 8.55441 77.0453 8.49609 77.0919C8.67104 76.8823 8.95093 76.6144 9.38247 76.2534C12.6948 73.4818 19.7627 67.9503 28.8016 63.0127C38.5053 57.7141 39.6366 57.0736 49.9701 60.0548C60.6418 63.1292 83.9564 70.9664 99.5149 83.4735" fill="#FBF7EB"/>
<path fill-rule="evenodd" clip-rule="evenodd" d="M106.268 75.6595L102.466 77.1734C102.466 77.1734 76.0489 61.9763 63.5811 59.1581C63.5811 59.1581 74.6377 58.9834 88.785 65.0506C102.932 71.1062 105.428 74.7395 106.28 75.6712" fill="#FBF7EB"/>
<path fill-rule="evenodd" clip-rule="evenodd" d="M104.215 76.463L102.454 77.1618C102.454 77.1618 76.0372 61.9646 63.5693 59.1465C63.5693 59.1465 79.9327 62.7099 90.896 67.2633C90.896 67.2633 87.747 67.2633 86.639 67.3797C86.639 67.3797 99.1185 72.1776 104.215 76.463Z" fill="#E5C471"/>
<defs>
<linearGradient id="paint0_linear_54_752" x1="288.5" y1="-3.92158e-06" x2="89" y2="436" gradientUnits="userSpaceOnUse">
<stop stop-color="#FAC659"/>
<stop offset="1" stop-color="#8A7EEE" stop-opacity="0.26"/>
</linearGradient>
</defs>
</svg>
