<svg width="32" height="32" viewBox="0 0 32 32" fill="none" xmlns="http://www.w3.org/2000/svg">
<path d="M13.982 0.215172C9.34055 0.832212 5.31892 3.3219 2.72433 7.17482C2.13334 8.05733 1.26127 9.80083 0.951357 10.7264C0.0144198 13.5174 -0.172968 16.2223 0.367573 19.0134C0.68469 20.6277 1.00181 21.5461 1.80181 23.1389C4.22343 27.9533 8.92253 31.1748 14.3712 31.7488C17.1099 32.043 19.8198 31.634 22.3423 30.5434C24.6631 29.5389 26.645 28.0609 28.3099 26.0806C29.7874 24.33 30.9694 21.991 31.5171 19.7309C32.1225 17.2555 32.1153 14.5937 31.4883 12.0896C31.2144 10.9775 30.9405 10.2457 30.3423 9.00441C28.6631 5.52459 25.7514 2.79813 22.0541 1.25553C19.6396 0.251047 16.6414 -0.136396 13.982 0.215172ZM20.2883 5.65374L21.3694 5.70396L21.391 7.40441L21.4054 9.11204L20.2378 9.11921C19.3297 9.11921 18.9838 9.14791 18.7243 9.24118C18.2054 9.42773 17.773 9.77213 17.6 10.1309C17.4487 10.4322 17.4414 10.5542 17.4414 12.1829V13.9192H19.3514H21.2685L21.2324 14.1488C21.2108 14.278 21.1243 14.8232 21.045 15.3542C20.9658 15.8851 20.8649 16.4806 20.8288 16.6815C20.7928 16.8753 20.7423 17.2197 20.7135 17.4349C20.6847 17.6502 20.6342 17.8726 20.591 17.9156C20.5405 17.9874 20.1297 18.0089 18.9838 18.0089H17.4414V22.8806C17.4414 25.5641 17.4198 27.8026 17.3982 27.8672C17.3622 27.9676 17.0955 27.982 15.2 27.982H13.0451V23.0385C13.0451 19.8959 13.0162 18.0735 12.973 18.0448C12.9369 18.0232 12.1153 18.0017 11.1423 18.0017C9.62163 18.0017 9.37658 17.9874 9.34055 17.8941C9.28289 17.7434 9.28289 14.1775 9.34055 14.034C9.37658 13.9336 9.60721 13.9192 11.1279 13.9192C12.0793 13.9192 12.9009 13.8905 12.9514 13.8618C13.009 13.8259 13.0451 13.1945 13.0595 11.6591C13.0883 9.72908 13.1099 9.45643 13.2396 9.04029C13.564 8.0358 13.982 7.33266 14.609 6.72997C15.0847 6.28513 15.4883 6.03401 16.0937 5.81159C16.836 5.53894 17.218 5.52459 20.2883 5.65374Z" fill="white"/>
</svg>
