<svg width="32" height="32" viewBox="0 0 32 32" fill="none" xmlns="http://www.w3.org/2000/svg">
<path d="M14.018 0.215336C12.3459 0.444931 11.2288 0.746277 9.77292 1.36332C5.60716 3.12834 2.35671 6.62969 0.915265 10.9059C0.396346 12.4485 0.0720215 14.4144 0.0720215 16.0001C0.0720215 17.1624 0.309859 18.87 0.648598 20.1257C1.49184 23.2611 3.30085 26.0593 5.86662 28.1902C6.47923 28.6996 7.58193 29.4674 8.12247 29.7543C8.28824 29.8404 8.58373 30.0055 8.77112 30.1059C9.23959 30.3499 10.299 30.7947 10.9549 31.0171C13.9387 32.0144 17.0522 32.1149 20.1441 31.3113C25.499 29.9265 29.881 25.636 31.3873 20.2978C32.0936 17.8082 32.1801 15.1535 31.6468 12.6566C30.7891 8.63865 28.3819 5.08709 24.9585 2.79112C21.7801 0.653006 17.7585 -0.294083 14.018 0.215336ZM21.6216 5.8835C22.2774 6.00547 22.5873 6.10592 23.1063 6.36422C24.2738 6.93821 25.1387 7.79202 25.6864 8.93283C26.2486 10.0808 26.2342 9.91578 26.2342 16.0144C26.2342 21.0153 26.2198 21.453 26.0972 21.9194C25.6432 23.6629 24.2954 25.1696 22.6738 25.7579C21.6864 26.1095 21.6144 26.1167 16.0216 26.1167C11.027 26.1167 10.7459 26.1095 10.1765 25.9732C8.49004 25.5714 7.1495 24.5167 6.39274 22.9956C5.84499 21.8907 5.87382 22.2925 5.87382 15.9642V10.2961L6.03959 9.78664C6.67382 7.77767 8.33869 6.29247 10.4072 5.8835C10.8036 5.80457 21.2108 5.80457 21.6216 5.8835Z" fill="white"/>
<path d="M10.5296 7.72022C9.57827 7.92829 8.66295 8.60991 8.16566 9.47807C7.63232 10.4036 7.63953 10.3104 7.63953 15.9642C7.63953 21.5534 7.63953 21.5175 8.12241 22.3857C8.65575 23.34 9.68638 24.0718 10.7458 24.244C11.3801 24.3516 20.6774 24.3516 21.326 24.244C21.5855 24.2081 22.0323 24.0646 22.3278 23.9283C23.3008 23.4763 24.1296 22.4431 24.353 21.3956C24.4612 20.8646 24.4612 11.0637 24.353 10.5328C24.0648 9.19107 22.8612 8.00004 21.499 7.71305C20.7927 7.56237 11.2215 7.56955 10.5296 7.72022ZM21.8521 9.4135C22.1981 9.51394 22.6089 9.95161 22.6738 10.2888C22.8972 11.4942 21.3837 12.2117 20.5981 11.2718C20.0792 10.6619 20.3963 9.62157 21.1675 9.4135C21.5422 9.31305 21.535 9.31305 21.8521 9.4135ZM17.1747 10.54C19.7621 11.1068 21.6287 13.374 21.6287 15.9713C21.6287 18.2888 20.1729 20.3409 17.9386 21.1875C17.5062 21.3525 16.5044 21.5247 15.9855 21.5247C15.1999 21.5247 14.1765 21.2521 13.4053 20.8287C11.8557 19.9821 10.8467 18.5256 10.5585 16.7104C10.4503 16.0144 10.4503 15.8924 10.5585 15.2395C10.7747 13.8691 11.3368 12.8 12.3458 11.8673C13.6503 10.6691 15.4594 10.1669 17.1747 10.54Z" fill="white"/>
<path d="M15.2504 12.4557C13.2684 12.9364 12.0143 14.9167 12.5116 16.818C12.6918 17.5211 12.9729 18.009 13.4846 18.5184C14.4576 19.4942 15.8053 19.8386 17.1386 19.4512C17.8738 19.2359 18.7675 18.5041 19.2071 17.7651C20.4251 15.6987 19.1783 12.9507 16.7999 12.4485C16.1729 12.3193 15.8125 12.3193 15.2504 12.4557Z" fill="white"/>
</svg>
