<svg width="32" height="32" viewBox="0 0 32 32" fill="none" xmlns="http://www.w3.org/2000/svg">
<path d="M14.1971 0.468191C10.0683 0.991117 6.37657 3.0438 3.80876 6.2438C2.06047 8.43697 1.03022 10.7394 0.530712 13.6194C0.296566 14.9697 0.296566 17.2097 0.530712 18.5989C1.61559 24.9833 6.28291 29.9628 12.519 31.4067C13.518 31.6409 13.7053 31.6643 15.001 31.7658C20.5736 32.1872 25.998 29.5101 29.1668 24.7804C31.9219 20.675 32.5385 15.2506 30.7824 10.5599C29.0575 5.9316 25.2019 2.37258 20.4097 0.975508C19.0049 0.569654 18.1619 0.452581 16.3902 0.429167C15.4692 0.413555 14.478 0.429167 14.1971 0.468191ZM20.6517 7.11014C20.8156 8.24185 21.3073 9.20185 22.119 10.0136C22.9229 10.8018 23.8907 11.2389 24.8663 11.2389H25.358L25.3814 12.7765C25.4127 14.9306 25.4595 14.7511 24.8351 14.7511C23.4536 14.7511 22.0956 14.2672 20.7844 13.2994L20.6049 13.1745V17.0223C20.6049 20.5814 20.5892 20.9326 20.4488 21.6194C19.6371 25.436 15.5005 27.6682 11.8322 26.2633C9.81071 25.4828 8.42144 23.9297 7.83608 21.7755C7.62535 21.0106 7.64876 19.5043 7.8751 18.7004C8.53852 16.3355 10.2946 14.6028 12.6127 14.0409C13.3229 13.8692 14.4546 13.7989 14.8527 13.916L15.0634 13.9706L15.0478 15.7033L15.0244 17.4282L14.1658 17.436C13.401 17.4438 13.2605 17.4672 12.8702 17.6623C12.3005 17.9433 11.7307 18.5131 11.481 19.0438C11.3014 19.4262 11.278 19.5667 11.278 20.3316C11.278 21.1199 11.2936 21.2214 11.4966 21.6038C11.7853 22.1501 12.3005 22.6497 12.8546 22.9228C13.2683 23.1179 13.3853 23.1414 14.1268 23.1414C14.8761 23.1414 14.9853 23.1179 15.4068 22.915C16.0234 22.6184 16.4683 22.1579 16.7883 21.4945L17.0536 20.956L17.0771 13.674L17.0927 6.3999L18.8253 6.41551L20.558 6.43892L20.6517 7.11014Z" fill="white"/>
</svg>
